<svg width="129" height="107" viewBox="0 0 129 107" fill="none" xmlns="http://www.w3.org/2000/svg">
<path id="Vector" d="M94.6322 33.2564C105.879 37.3918 111.731 50.1033 108.861 58.3482C105.985 66.5951 99.1965 56.5654 87.9503 52.4279C76.7084 48.2884 65.2699 51.6146 68.141 43.3675C71.0142 35.1205 83.3862 29.1167 94.6322 33.2564ZM103.982 29.9197C100.629 28.3106 101.005 19.9676 103.418 14.4789C105.831 8.99467 110.505 5.85739 113.858 7.47089C117.208 9.08646 117.969 14.8422 115.557 20.3264C113.144 25.8129 107.337 31.5355 103.982 29.9197ZM90.1699 24.6936C86.5056 24.1038 84.8979 16.0508 85.9591 10.1363C87.0179 4.22602 90.8482 -0.083191 94.5132 0.500074C98.1773 1.09213 100.291 6.36086 99.2304 12.271C98.1676 18.181 93.8383 25.2837 90.1699 24.6936ZM75.5343 6.27393C79.2461 6.50868 81.7766 11.5319 81.1876 17.494C80.5982 23.4605 76.8331 30.9127 73.1234 30.6781C69.4096 30.4432 67.1566 22.6103 67.746 16.6438C68.3332 10.6794 71.8205 6.03904 75.5343 6.27393ZM126.058 24.8612C129.074 27.0989 128.903 32.9636 125.67 37.9583C122.444 42.9489 115.861 47.5328 112.847 45.293C109.831 43.0531 111.524 34.8354 114.753 29.8449C117.982 24.85 123.046 22.6215 126.058 24.8612ZM32.8114 79.5364C44.7306 76.8617 55.774 84.3486 56.9903 92.8521C58.2105 101.358 47.5631 96.6349 35.6459 99.3097C23.7269 101.982 15.0552 111.034 13.839 102.528C12.6186 94.0247 20.8965 82.2091 32.8114 79.5364ZM24.232 75.0723C20.6087 76.2402 15.9929 69.8583 14.6876 64.1367C13.3823 58.4151 15.264 52.8265 18.8897 51.6544C22.5177 50.4802 26.5139 54.168 27.8192 59.8896C29.1246 65.6112 27.8599 73.8981 24.232 75.0723ZM38.8978 71.6385C35.1632 71.7604 32.2801 64.2038 32.395 58.2338C32.5099 52.2638 35.6262 47.3237 39.3609 47.2018C43.095 47.0842 46.0294 51.8235 45.9204 57.7961C45.8053 63.7682 42.6324 71.5166 38.8978 71.6385ZM54.5635 79.6941C50.8476 79.4591 48.5947 71.6262 49.1841 65.6597C49.7731 59.6976 53.2606 55.055 56.9744 55.2899C60.6882 55.5248 63.2208 60.5481 62.6314 66.5146C62.0424 72.4767 58.2732 79.9287 54.5635 79.6941ZM3.42672 67.2951C6.84517 65.4622 11.4044 68.2992 13.6109 73.6357C15.8152 78.9721 15.8761 87.3007 12.4638 89.1341C9.04531 90.967 3.44433 85.6126 1.2377 80.2783C-0.968703 74.9418 0.0123673 69.1283 3.42672 67.2951Z" fill="#FFC857"/>
</svg>
