<svg width="197" height="137" viewBox="0 0 197 137" fill="none" xmlns="http://www.w3.org/2000/svg">
<path d="M145.481 45.8428C162.07 53.2307 169.97 71.7765 165.09 82.839C160.202 93.9037 150.711 78.9559 134.122 71.5651C117.54 64.1721 100.144 67.1446 105.025 56.079C109.909 45.0139 128.892 38.4489 145.481 45.8428ZM159.743 42.5529C154.824 39.8265 155.967 28.2657 159.969 20.974C163.97 13.6885 171.203 9.99837 176.122 12.7308C181.037 15.4657 181.78 23.5893 177.779 30.8749C173.777 38.1635 164.665 45.2888 159.743 42.5529ZM139.379 33.2745C133.921 31.922 132.068 20.4775 134.071 12.397C136.07 4.322 142.118 -1.12208 147.577 0.22129C153.034 1.57677 155.841 9.21852 153.838 17.293C151.833 25.367 144.843 34.6279 139.379 33.2745ZM118.696 5.5083C124.249 6.37325 127.698 13.7335 126.4 21.9487C125.101 30.17 118.934 39.9994 113.383 39.1349C107.826 38.2695 104.989 27.0377 106.288 18.8164C107.584 10.5977 113.139 4.64287 118.696 5.5083ZM193.222 38.7107C197.593 42.2634 196.929 50.4037 191.731 56.8886C186.542 63.369 176.345 68.7964 171.978 65.2411C167.607 61.6854 170.719 50.49 175.911 44.0102C181.104 37.5243 188.857 35.1559 193.222 38.7107ZM49.4967 101.312C67.5687 99.3166 83.6207 111.341 84.8554 123.356C86.0958 135.375 70.446 127.256 52.377 129.252C34.3055 131.245 20.6637 142.59 19.4295 130.572C18.1886 118.556 31.4313 103.306 49.4967 101.312ZM36.9321 93.8535C31.4139 94.9542 24.9305 85.3999 23.369 77.2449C21.8076 69.09 25.0194 61.5822 30.5417 60.476C36.0675 59.3672 41.8082 65.0809 43.3697 73.2359C44.9312 81.3909 42.4579 92.7447 36.9321 93.8535ZM59.1786 91.1991C53.5659 90.8274 49.7641 79.8888 50.3512 71.5939C50.9382 63.299 55.9577 56.873 61.5705 57.2448C67.1823 57.6225 71.2565 64.6461 70.6782 72.9454C70.0907 81.2433 64.7913 91.5708 59.1786 91.1991ZM82.1275 104.685C76.5677 103.82 73.7308 92.5878 75.0297 84.3665C76.3276 76.1513 81.8834 70.1934 87.4402 71.0589C92.9969 71.9243 96.4485 79.2851 95.1497 87.5063C93.8517 95.7215 87.6781 105.55 82.1275 104.685ZM6.2513 80.0096C11.5084 77.9533 18.1532 82.5642 21.0936 90.3136C24.0309 98.0626 23.5438 109.667 18.2959 111.725C13.0388 113.781 5.00565 105.514 2.06478 97.7678C-0.875618 90.0183 1.00032 82.0668 6.2513 80.0096Z" fill="#E9724C" fill-opacity="0.25"/>
</svg>
