<svg width="120" height="120" viewBox="0 0 120 120" fill="none" xmlns="http://www.w3.org/2000/svg">
<path id="Vector" d="M22.8245 21.3115C33.5569 26.2758 38.9231 28.7612 40.2181 32.3381C40.8874 34.1904 40.8974 36.1973 40.2466 38.0513C38.9875 41.6317 33.6462 44.1313 22.9636 49.1243L17.0399 51.8885C14.2832 53.1792 12.9032 53.8214 11.9619 53.9765C8.05425 54.6127 4.43825 51.8833 4.30369 48.1919C4.27271 47.3035 4.66714 45.9155 5.45929 43.1363C5.77447 42.0875 6.05569 41.0298 6.30255 39.9646C6.9543 36.8457 6.93823 33.6328 6.25529 30.5157C6.08216 29.7249 5.84931 28.931 5.37699 27.3463C4.56037 24.5693 4.15206 23.1823 4.17416 22.2939C4.2718 18.6052 7.86044 15.8631 11.7744 16.4888C12.7172 16.6382 14.1003 17.2799 16.8765 18.5632L22.8245 21.3115ZM55.4719 16.7945C50.0682 18.095 46.4842 21.7538 47.4655 24.967C48.4502 28.1834 53.626 29.7366 59.0263 28.436C64.43 27.1355 68.014 23.4767 67.0327 20.2635C66.048 17.0472 60.8722 15.4939 55.4719 16.7945ZM55.6558 53.5539C50.2392 52.2678 46.6185 48.6187 47.5677 45.4029C48.5202 42.184 53.6804 40.6169 59.0937 41.903C64.5103 43.1891 68.1309 46.8382 67.1817 50.054C66.2292 53.2729 61.069 54.84 55.6558 53.5539ZM32.9535 4.44686C28.9635 5.86482 26.552 9.18929 27.5672 11.8719C28.5824 14.5546 32.641 15.5788 36.6343 14.1608C40.6209 12.7428 43.0324 9.41837 42.0172 6.73574C41.0021 4.05311 36.9435 3.02889 32.9502 4.44686L32.9535 4.44686ZM33.2612 65.9616C29.257 64.5544 26.8123 61.2364 27.8007 58.5511C28.789 55.8658 32.8373 54.8307 36.8447 56.238C40.8455 57.6452 43.2902 60.9632 42.3019 63.6485C41.3136 66.3338 37.2653 67.3689 33.2578 65.9616L33.2612 65.9616Z" stroke="white" stroke-opacity="0.8" stroke-width="6.51879"/>
</svg>
