<svg xmlns="http://www.w3.org/2000/svg"  viewBox="0 0 50 50" width="50px" height="50px" baseProfile="basic"><path fill="#16d6fa" d="M43,47H7V3h25.669L43,13.427V47z M11,43h28V15.073L31.001,7H11V43z"/><polygon fill="#16d6fa" points="43,19 27,19 27,3 31,3 31,15 43,15"/><rect width="4" height="4" x="27" y="3" fill="#00a4ff"/><rect width="4" height="4" x="39" y="15" fill="#00a4ff"/><circle cx="20" cy="21" r="3" fill="#ff64bd"/><polygon fill="#af87ce" points="37,31.333 30.053,23.852 22,31.906 17,26.906 13,30.906 13,36.562 17,32.562 22,37.562 29.947,29.616 37,37.212"/></svg>