<svg width="71" height="70" viewBox="0 0 71 70" fill="none" xmlns="http://www.w3.org/2000/svg">
<path id="Vector" d="M48.5544 21.2837C37.8362 26.2225 32.4771 28.695 31.1924 32.2688C30.5284 34.1196 30.5241 36.1264 31.1802 37.982C32.4496 41.5654 37.798 44.0778 48.4949 49.0963L54.4266 51.8746C57.187 53.172 58.5689 53.8175 59.5106 53.9748C63.4201 54.6203 67.0283 51.8996 67.1523 48.2084C67.1807 47.3201 66.7823 45.9312 65.9822 43.15C65.664 42.1005 65.3798 41.0421 65.1299 39.9763C64.4692 36.8559 64.476 33.643 65.1501 30.5276C65.3209 29.7371 65.5515 28.9438 66.0193 27.3603C66.828 24.5851 67.2323 23.1991 67.2076 22.3107C67.0994 18.6218 63.5029 15.871 59.5907 16.4874C58.6484 16.6346 57.2671 17.273 54.4946 18.5497L48.5544 21.2837ZM15.894 16.6888C21.3014 18.0022 24.8959 21.6696 23.9238 24.8805C22.9483 28.0944 17.777 29.6353 12.3729 28.3219C6.96548 27.0084 3.37093 23.341 4.34308 20.1302C5.31854 16.9162 10.4899 15.3753 15.894 16.6888ZM15.8154 53.4479C21.2283 52.1747 24.8385 48.5342 23.8801 45.3161C22.9184 42.0949 17.7537 40.5155 12.3441 41.7887C6.93116 43.0619 3.32099 46.7024 4.27939 49.9204C5.24111 53.1417 10.4058 54.721 15.8154 53.4479ZM38.3771 4.39486C42.3712 5.82236 44.7922 9.1526 43.7847 11.8328C42.7772 14.513 38.7215 15.5276 34.7241 14.1001C30.7334 12.6726 28.3124 9.34233 29.3199 6.66211C30.3274 3.98189 34.383 2.96736 38.3804 4.39487L38.3771 4.39486ZM38.2456 65.9091C42.2457 64.5114 44.6809 61.1992 43.6849 58.5116C42.6889 55.8239 38.6376 54.7791 34.6342 56.1768C30.6374 57.5746 28.2022 60.8867 29.1982 63.5744C30.1942 66.2621 34.2455 67.3068 38.2489 65.9091L38.2456 65.9091Z" stroke="white" stroke-opacity="0.8" stroke-width="6.51879"/>
</svg>
